HIERARCHY
ROOT Hips
{
	OFFSET 0.000000 0.000000 0.000000
	CHANNELS 6 Xposition Yposition Zposition Zrotation Yrotation Xrotation 
	JOINT LowerBack
	{
		OFFSET 0.000000 0.000000 0.000000
		CHANNELS 3 Zrotation Yrotation Xrotation
		JOINT Spine
		{
			OFFSET 0.028270 2.035590 -0.193380
			CHANNELS 3 Zrotation Yrotation Xrotation
			JOINT Spine1
			{
				OFFSET 0.056720 2.048850 -0.042750
				CHANNELS 3 Zrotation Yrotation Xrotation
				JOINT Neck
				{
					OFFSET 0.000000 0.000000 0.000000
					CHANNELS 3 Zrotation Yrotation Xrotation
					JOINT Neck1
					{
						OFFSET -0.054170 1.746240 0.172020
						CHANNELS 3 Zrotation Yrotation Xrotation
						JOINT Head
						{
							OFFSET 0.104070 1.761360 -0.123970
							CHANNELS 3 Zrotation Yrotation Xrotation
							End Site
							{
								OFFSET 0.000000 0.000000 0.000000
							}
						}
					}
				}
				JOINT LeftShoulder
				{
					OFFSET 0.000000 0.000000 0.000000
					CHANNELS 3 Zrotation Yrotation Xrotation
					JOINT LeftArm
					{
						OFFSET 3.362410 1.200890 -0.311210
						CHANNELS 3 Zrotation Yrotation Xrotation
						JOINT LeftForeArm
						{
							OFFSET 4.983000 -0.000000 -0.000000
							CHANNELS 3 Zrotation Yrotation Xrotation
							JOINT LeftHand
							{
								OFFSET 3.483560 -0.000000 -0.000000
								CHANNELS 3 Zrotation Yrotation Xrotation
								JOINT LeftFingerBase
								{
									OFFSET 0.000000 0.000000 0.000000
									CHANNELS 3 Zrotation Yrotation Xrotation
									JOINT LeftHandIndex1
									{
										OFFSET 0.715260 -0.000000 -0.000000
										CHANNELS 3 Zrotation Yrotation Xrotation
										End Site
										{
											OFFSET 0.000000 0.000000 0.000000
										}
									}
								}
								JOINT LThumb
								{
									OFFSET 0.000000 0.000000 0.000000
									CHANNELS 3 Zrotation Yrotation Xrotation
									End Site
									{
										OFFSET 0.000000 0.000000 0.000000
									}
								}
							}
						}
					}
				}
				JOINT RightShoulder
				{
					OFFSET 0.000000 0.000000 0.000000
					CHANNELS 3 Zrotation Yrotation Xrotation
					JOINT RightArm
					{
						OFFSET -3.136600 1.374050 -0.404650
						CHANNELS 3 Zrotation Yrotation Xrotation
						JOINT RightForeArm
						{
							OFFSET -5.241900 -0.000000 -0.000000
							CHANNELS 3 Zrotation Yrotation Xrotation
							JOINT RightHand
							{
								OFFSET -3.444170 -0.000000 -0.000000
								CHANNELS 3 Zrotation Yrotation Xrotation
								JOINT RightFingerBase
								{
									OFFSET 0.000000 0.000000 0.000000
									CHANNELS 3 Zrotation Yrotation Xrotation
									JOINT RightHandIndex1
									{
										OFFSET -0.622530 -0.000000 -0.000000
										CHANNELS 3 Zrotation Yrotation Xrotation
										End Site
										{
											OFFSET 0.000000 0.000000 0.000000
										}
									}
								}
								JOINT RThumb
								{
									OFFSET 0.000000 0.000000 0.000000
									CHANNELS 3 Zrotation Yrotation Xrotation
									End Site
									{
										OFFSET 0.000000 0.000000 0.000000
									}
								}
							}
						}
					}
				}
			}
		}
	}
}
}
MOTION
Frames: 10
Frame Time: 0.008333
-0.655281 16.716538 0.136350 -99.029449 84.977233 -81.461771 -2.463663 0.130571 -3.507947 -1.284458 0.183269 -3.800260 -6.046721 0.189722 -0.533129 10.541917 -7.204638 -6.054185 -2.465104 -0.207971 0.426709 0.000000 0.000000 0.000000 -2.642675 13.354971 0.155044 -69.936176 18.515926 21.453434 -0.139699 -89.669346 -0.019968 5.803969 0.145990 -0.002588 -0.077035 0.231200 -0.000000 0.000000 0.000000 0.000000 0.000000 0.000000 0.000000 9.401443 -0.646122 0.306119 59.239309 28.046228 32.534344 179.645894 85.514241 -179.988657 0.301855 6.113053 0.015597 0.056041 -0.495835 -0.000000 0.000000 0.000000 0.000000 0.000000 0.000000 0.000000 
-0.461147 16.651818 0.106112 -95.238668 84.889074 -77.792134 -2.655904 0.107451 -3.533202 -1.318918 0.174613 -3.790797 -6.024142 0.181461 -0.477194 10.757322 -7.062170 -5.931346 -2.409776 -0.205191 0.458555 0.000000 0.000000 0.000000 -3.062123 13.660106 0.144355 -69.714498 18.346163 21.046092 -0.147095 -89.467358 -0.021095 6.171571 0.199907 0.000374 -0.086142 0.228113 -0.000000 0.000000 0.000000 0.000000 0.000000 0.000000 0.000000 9.335227 -0.538854 0.269471 59.048499 28.658219 32.423194 179.651545 85.531285 -179.988502 0.332572 6.169163 0.017572 0.054872 -0.498123 -0.000000 0.000000 0.000000 0.000000 0.000000 0.000000 0.000000 
-0.272890 16.596808 0.072903 -90.156773 84.796579 -72.863719 -2.839126 0.123419 -3.496432 -1.351424 0.205411 -3.770962 -6.000550 0.212227 -0.422717 10.908823 -6.918654 -5.814120 -2.358201 -0.202515 0.487557 0.000000 0.000000 0.000000 -3.536386 13.992848 0.143701 -69.500849 17.969218 20.584030 -0.157800 -89.125264 -0.022288 6.565670 0.324896 0.007834 -0.096167 0.223792 -0.000000 0.000000 0.000000 0.000000 0.000000 0.000000 0.000000 9.227219 -0.412786 0.223247 58.962313 29.204811 32.303777 179.667471 85.670536 -179.988462 0.362301 6.189224 0.019442 0.053202 -0.498761 -0.000000 0.000000 0.000000 0.000000 0.000000 0.000000 0.000000 
-0.090333 16.552851 0.036651 -83.799569 84.681592 -66.683212 -3.032502 0.182130 -3.409088 -1.386018 0.280343 -3.744470 -5.978390 0.286299 -0.374175 11.002108 -6.776413 -5.701716 -2.312575 -0.200150 0.514253 0.000000 0.000000 0.000000 -4.041286 14.326882 0.150911 -69.313098 17.415853 20.057143 -0.172039 -88.656053 -0.023547 6.980654 0.514891 0.020387 -0.106624 0.218360 -0.000000 0.000000 0.000000 0.000000 0.000000 0.000000 0.000000 9.093172 -0.268587 0.171886 58.968518 29.667295 32.176366 179.692027 85.913806 -179.988556 0.385700 6.165113 0.020809 0.051294 -0.497771 -0.000000 0.000000 0.000000 0.000000 0.000000 0.000000 0.000000 
0.086983 16.520556 -0.003042 -76.502333 84.520864 -59.571936 -3.247505 0.279125 -3.287539 -1.424479 0.395514 -3.715154 -5.958327 0.399422 -0.334483 11.042560 -6.635319 -5.593522 -2.274392 -0.198254 0.539200 0.000000 0.000000 0.000000 -4.554532 14.639565 0.163904 -69.170431 16.721016 19.462868 -0.189809 -88.077605 -0.024899 7.417515 0.757792 0.037932 -0.117219 0.212122 -0.000000 0.000000 0.000000 0.000000 0.000000 0.000000 0.000000 8.944419 -0.108861 0.118045 59.048873 30.029078 32.039683 179.723221 86.240055 -179.988799 0.398061 6.094041 0.021379 0.049330 -0.495243 -0.000000 0.000000 0.000000 0.000000 0.000000 0.000000 0.000000 
0.259761 16.499952 -0.046690 -68.935483 84.300991 -52.187196 -3.482846 0.401225 -3.145848 -1.465885 0.537601 -3.685646 -5.939696 0.538252 -0.305726 11.035617 -6.494101 -5.488079 -2.244671 -0.196953 0.563136 0.000000 0.000000 0.000000 -5.056639 14.905984 0.180954 -69.089297 15.927067 18.802616 -0.210689 -87.415832 -0.026382 7.881127 1.036534 0.060269 -0.127777 0.205509 -0.000000 0.000000 0.000000 0.000000 0.000000 0.000000 0.000000 8.789909 0.060016 0.063846 59.179485 30.280874 31.894799 179.758940 86.628280 -179.989207 0.394624 5.978867 0.020950 0.047458 -0.491318 -0.000000 0.000000 0.000000 0.000000 0.000000 0.000000 0.000000 
0.428722 16.490495 -0.094836 -61.919595 84.022215 -45.341758 -3.713219 0.531732 -2.992919 -1.505178 0.688135 -3.656985 -5.921752 0.684847 -0.289112 10.986416 -6.350844 -5.383389 -2.224005 -0.196335 0.586875 0.000000 0.000000 0.000000 -5.532037 15.104010 0.200425 -69.082482 15.077246 18.083425 -0.233875 -86.701634 -0.028041 8.378388 1.330823 0.086400 -0.138199 0.199024 -0.000000 0.000000 0.000000 0.000000 0.000000 0.000000 0.000000 8.635529 0.230165 0.010615 59.333411 30.419269 31.742933 179.797025 87.057518 -179.989780 0.373037 5.828395 0.019320 0.045723 -0.486192 -0.000000 0.000000 0.000000 0.000000 0.000000 0.000000 0.000000 
0.594785 16.491108 -0.148033 -56.139154 83.692589 -39.715448 -3.889369 0.658292 -2.834515 -1.533381 0.831170 -3.629175 -5.904105 0.824134 -0.283884 10.899581 -6.203301 -5.277793 -2.212345 -0.196430 0.611119 0.000000 0.000000 0.000000 -5.970782 15.224034 0.220071 -69.156258 14.207156 17.321772 -0.258333 -85.965970 -0.029907 8.915032 1.618560 0.115128 -0.148447 0.193172 -0.000000 0.000000 0.000000 0.000000 0.000000 0.000000 0.000000 8.483385 0.395784 -0.040929 59.483350 30.447459 31.587392 179.835411 87.508450 -179.990430 0.335341 5.655608 0.016791 0.044070 -0.480081 -0.000000 0.000000 0.000000 0.000000 0.000000 0.000000 0.000000 
0.758926 16.500507 -0.206646 -51.919616 83.322895 -35.632008 -3.963032 0.776044 -2.675731 -1.541963 0.958172 -3.601951 -5.886966 0.948313 -0.287163 10.780796 -6.051409 -5.170386 -2.209211 -0.197211 0.636336 0.000000 0.000000 0.000000 -6.368126 15.270515 0.236559 -69.308265 13.340005 16.543436 -0.282896 -85.237220 -0.031992 9.492970 1.879347 0.144854 -0.158506 0.188356 -0.000000 0.000000 0.000000 0.000000 0.000000 0.000000 0.000000 8.335663 0.552446 -0.089978 59.603845 30.376864 31.433781 179.872129 87.963978 -179.991144 0.287438 5.476144 0.013959 0.042410 -0.473248 -0.000000 0.000000 0.000000 0.000000 0.000000 0.000000 0.000000 
0.922074 16.517257 -0.270783 -49.247706 82.927700 -33.077007 -3.907233 0.883860 -2.522801 -1.526100 1.065807 -3.575932 -5.870730 1.054268 -0.297384 10.636204 -5.894819 -5.058693 -2.214044 -0.198666 0.663410 0.000000 0.000000 0.000000 -6.725101 15.245929 0.246499 -69.525998 12.500839 15.773098 -0.306135 -84.547700 -0.034265 10.105701 2.095535 0.173880 -0.168272 0.184836 -0.000000 0.000000 0.000000 0.000000 0.000000 0.000000 0.000000 8.194825 0.698295 -0.134872 59.675767 30.219023 31.288700 179.905360 88.409701 -179.992056 0.240762 5.306197 0.011227 0.040580 -0.465998 -0.000000 0.000000 0.000000 0.000000 0.000000 0.000000 0.000000 
